<svg id="Layer_1" data-name="Layer 1" xmlns="http://www.w3.org/2000/svg" viewBox="0 0 16 16"><defs><style>.cls-1{fill:#fff;}</style></defs><title>close</title><path class="cls-1" d="M10.71,8.71a1,1,0,0,1,0-1.41l2.88-2.88a4.66,4.66,0,0,0,.9-1.22c.11-.28-.33-1-.49-1.19a2.72,2.72,0,0,0-.81-.49c-.28-.11-1.22.51-1.61.9L8.71,5.29a1,1,0,0,1-1.41,0L4.41,2.41a4.66,4.66,0,0,0-1.22-.9c-.28-.11-1,.33-1.19.49a2.72,2.72,0,0,0-.49.81c-.11.28.51,1.22.9,1.61L5.29,7.29a1,1,0,0,1,0,1.41L2.41,11.59a4.66,4.66,0,0,0-.9,1.22c-.11.28.33,1,.49,1.19a2.72,2.72,0,0,0,.81.49c.28.11,1.22-.51,1.61-.9l2.88-2.88a1,1,0,0,1,1.41,0l2.88,2.88a4.66,4.66,0,0,0,1.22.9c.28.11,1-.33,1.19-.49a2.72,2.72,0,0,0,.49-.81c.11-.28-.51-1.22-.9-1.61Z"/></svg>